<svg width="82" height="83" viewBox="0 0 82 83" fill="none" xmlns="http://www.w3.org/2000/svg">
<path d="M56.4724 16.1355C56.4724 7.72505 49.6547 0.907227 41.2444 0.907227C32.8341 0.907227 26.0164 7.72505 26.0164 16.1355C26.0164 24.546 32.8341 31.3638 41.2444 31.3638C49.6547 31.3638 56.4724 24.546 56.4724 16.1355ZM37.6896 39.1524C28.2784 33.391 13.0345 31.8079 5.36338 31.3717C2.78572 31.2258 0.636353 33.1896 0.636353 35.6689V71.0112C0.636353 73.2844 2.47482 75.18 4.83833 75.3021C11.7639 75.6654 25.7753 76.9963 35.4593 81.8741C36.9457 82.6228 38.708 81.6028 38.708 79.9912V40.9703C38.7064 40.2295 38.34 39.5506 37.6896 39.1524ZM77.1254 31.3717C69.4559 31.8064 54.2104 33.391 44.8008 39.1524C44.1504 39.5506 43.784 40.2565 43.784 40.9973V79.9864C43.784 81.6028 45.5511 82.6244 47.0422 81.8741C56.7246 77.001 70.7281 75.6701 77.6521 75.3069C80.0156 75.1832 81.854 73.2876 81.854 71.0144V35.6689C81.8525 33.1896 79.7031 31.2258 77.1254 31.3717Z" fill="#8E8D94"/>
</svg>
