<svg width="68" height="78" viewBox="0 0 68 78" fill="none" xmlns="http://www.w3.org/2000/svg">
<path d="M48.0681 48.9392L34.001 63.2608L19.9338 48.9392C9.39083 49.4046 0.971176 58.1867 0.971176 69.0254V70.4666C0.971176 74.4448 4.14145 77.6724 8.04899 77.6724H59.953C63.8605 77.6724 67.0308 74.4448 67.0308 70.4666V69.0254C67.0308 58.1867 58.6111 49.4046 48.0681 48.9392ZM2.97656 12.7901L3.92027 13.0152V21.7823C2.88808 22.4128 2.15081 23.5087 2.15081 24.8298C2.15081 26.0908 2.8291 27.1416 3.78756 27.7871L1.48727 37.1397C1.23659 38.1755 1.79692 39.2414 2.60792 39.2414H8.77152C9.58252 39.2414 10.1428 38.1755 9.89217 37.1397L7.59188 27.7871C8.55034 27.1416 9.22863 26.0908 9.22863 24.8298C9.22863 23.5087 8.49135 22.4128 7.45917 21.7823V13.8859L17.1912 16.2729C15.9231 18.8549 15.1268 21.7373 15.1268 24.8298C15.1268 35.4433 23.5759 44.0453 34.001 44.0453C44.426 44.0453 52.8751 35.4433 52.8751 24.8298C52.8751 21.7373 52.0936 18.8549 50.8108 16.2729L65.0107 12.7901C67.6943 12.1295 67.6943 8.72177 65.0107 8.06124L36.9353 1.15567C35.0184 0.690297 32.9983 0.690297 31.0814 1.15567L2.97656 8.04623C0.307631 8.70676 0.307631 12.1295 2.97656 12.7901Z" fill="#8E8D94"/>
</svg>
