<svg width="97" height="74" viewBox="0 0 97 74" fill="none" xmlns="http://www.w3.org/2000/svg">
<path d="M47.4866 19.6189L16.8504 44.2006V70.7314C16.8504 71.4183 17.1305 72.0771 17.6291 72.5628C18.1277 73.0486 18.8039 73.3215 19.5091 73.3215L38.1297 73.2745C38.8326 73.2711 39.5054 72.9967 40.0011 72.5113C40.4968 72.026 40.7751 71.3691 40.7751 70.6844V55.1907C40.7751 54.5038 41.0552 53.845 41.5538 53.3592C42.0524 52.8735 42.7287 52.6006 43.4338 52.6006H54.0685C54.7736 52.6006 55.4498 52.8735 55.9484 53.3592C56.447 53.845 56.7271 54.5038 56.7271 55.1907V70.6731C56.726 71.0139 56.794 71.3516 56.9271 71.6667C57.0602 71.9819 57.2559 72.2684 57.5029 72.5098C57.7499 72.7512 58.0434 72.9427 58.3665 73.0733C58.6896 73.204 59.036 73.2713 59.3858 73.2713L77.9998 73.3215C78.705 73.3215 79.3812 73.0486 79.8798 72.5628C80.3784 72.0771 80.6585 71.4183 80.6585 70.7314V44.1828L50.029 19.6189C49.6689 19.3361 49.2203 19.1819 48.7578 19.1819C48.2953 19.1819 47.8467 19.3361 47.4866 19.6189ZM95.8794 36.3267L81.9878 25.1714V2.74922C81.9878 2.23401 81.7778 1.73991 81.4038 1.37561C81.0299 1.0113 80.5227 0.806641 79.9938 0.806641H70.6885C70.1596 0.806641 69.6525 1.0113 69.2785 1.37561C68.9046 1.73991 68.6945 2.23401 68.6945 2.74922V14.5034L53.8176 2.57924C52.3899 1.43471 50.5984 0.808929 48.7495 0.808929C46.9005 0.808929 45.1091 1.43471 43.6814 2.57924L1.61953 36.3267C1.41762 36.4893 1.25056 36.689 1.12792 36.9145C1.00527 37.14 0.929441 37.3868 0.904751 37.6409C0.880061 37.895 0.906998 38.1513 0.984024 38.3952C1.06105 38.6391 1.18666 38.8659 1.35366 39.0625L5.59092 44.0808C5.75747 44.2781 5.96233 44.4415 6.19377 44.5615C6.42521 44.6816 6.67868 44.756 6.93968 44.7805C7.20068 44.805 7.46408 44.7791 7.7148 44.7044C7.96552 44.6296 8.19863 44.5073 8.4008 44.3447L47.4866 12.9817C47.8467 12.699 48.2953 12.5448 48.7578 12.5448C49.2203 12.5448 49.6689 12.699 50.029 12.9817L89.1164 44.3447C89.3182 44.5074 89.551 44.6297 89.8013 44.7048C90.0517 44.7798 90.3148 44.8061 90.5756 44.782C90.8364 44.758 91.0898 44.6841 91.3212 44.5646C91.5527 44.4451 91.7577 44.2824 91.9246 44.0857L96.1619 39.0673C96.3287 38.8696 96.4538 38.6417 96.5299 38.3967C96.606 38.1517 96.6317 37.8945 96.6054 37.6398C96.5792 37.3851 96.5015 37.138 96.3769 36.9126C96.2523 36.6873 96.0833 36.4882 95.8794 36.3267Z" fill="#8E8D94"/>
</svg>
