<svg width="24" height="24" viewBox="0 0 24 24" fill="none" xmlns="http://www.w3.org/2000/svg">
<path d="M12 0C5.37097 0 0 5.37097 0 12C0 18.629 5.37097 24 12 24C18.629 24 24 18.629 24 12C24 5.37097 18.629 0 12 0ZM18.9677 13.3548C18.9677 13.6742 18.7065 13.9355 18.3871 13.9355H13.9355V18.3871C13.9355 18.7065 13.6742 18.9677 13.3548 18.9677H10.6452C10.3258 18.9677 10.0645 18.7065 10.0645 18.3871V13.9355H5.6129C5.29355 13.9355 5.03226 13.6742 5.03226 13.3548V10.6452C5.03226 10.3258 5.29355 10.0645 5.6129 10.0645H10.0645V5.6129C10.0645 5.29355 10.3258 5.03226 10.6452 5.03226H13.3548C13.6742 5.03226 13.9355 5.29355 13.9355 5.6129V10.0645H18.3871C18.7065 10.0645 18.9677 10.3258 18.9677 10.6452V13.3548Z" fill="white"/>
</svg>
