<svg width="35" height="36" viewBox="0 0 35 36" fill="none" xmlns="http://www.w3.org/2000/svg">
<path d="M17.5 35.5C7.83266 35.5 6.84753e-07 27.6673 1.5299e-06 18C2.37504e-06 8.33266 7.83266 0.499998 17.5 0.499998C27.1673 0.499999 35 8.33266 35 18C35 27.6673 27.1673 35.5 17.5 35.5ZM19.5393 25.3669L14.2117 20.2581L27.0968 20.2581C28.0353 20.2581 28.7903 19.503 28.7903 18.5645L28.7903 17.4355C28.7903 16.497 28.0353 15.7419 27.0968 15.7419L14.2117 15.7419L19.5393 10.6331C20.2238 9.97681 20.2379 8.88306 19.5675 8.2127L18.7913 7.44355C18.128 6.78024 17.0554 6.78024 16.3992 7.44355L7.03528 16.8004C6.37198 17.4637 6.37198 18.5363 7.03528 19.1925L16.3992 28.5635C17.0625 29.2268 18.1351 29.2268 18.7913 28.5635L19.5675 27.7944C20.2379 27.1169 20.2238 26.0232 19.5393 25.3669Z" fill="white"/>
</svg>
